0
SECTION
2
HEADER
9
$ACADVER
1
AC1009
9
$EXTMIN
10
-60
20
-60
30
0
9
$EXTMAX
10
60
20
60
30
0
0
ENDSEC
0
SECTION
2
TABLES
0
TABLE
2
LTYPE
70
1
0
LTYPE
2
CONTINUOUS
70
0
3
Solid
72
65
73
0
40
0
0
ENDTAB
0
TABLE
2
LAYER
70
11
0
LAYER
2
0
70
0
62
7
6
CONTINUOUS
0
LAYER
2
COLUMN
70
0
62
1
6
CONTINUOUS
0
LAYER
2
BEAM
70
0
62
3
6
CONTINUOUS
0
LAYER
2
WALL
70
0
62
7
6
CONTINUOUS
0
LAYER
2
DOOR
70
0
62
3
6
CONTINUOUS
0
LAYER
2
WINDOW
70
0
62
4
6
CONTINUOUS
0
LAYER
2
FURN
70
0
62
8
6
CONTINUOUS
0
LAYER
2
STAIR
70
0
62
6
6
CONTINUOUS
0
LAYER
2
GRID
70
0
62
5
6
CONTINUOUS
0
LAYER
2
DIM
70
0
62
5
6
CONTINUOUS
0
LAYER
2
ROOM
70
0
62
4
6
CONTINUOUS
0
ENDTAB
0
TABLE
2
STYLE
70
1
0
STYLE
2
STANDARD
70
0
40
0
41
1
50
0
71
0
42
0.2
3
txt
4

0
ENDTAB
0
TABLE
2
VIEW
70
0
0
ENDTAB
0
TABLE
2
VPORT
70
1
0
VPORT
2
*ACTIVE
70
0
10
0
20
0
11
1
21
1
12
0
22
0
13
0
23
0
14
10
24
10
15
10
25
10
16
0
26
0
36
1
17
0
27
0
37
0
40
50
41
1
42
50
43
0
44
0
50
0
51
0
71
0
72
100
73
1
74
3
75
0
76
0
0
ENDTAB
0
ENDSEC
0
SECTION
2
ENTITIES
0
LINE
8
WALL
10
-0.5000
20
0.0900
30
0
11
18.5000
21
0.0900
31
0
0
LINE
8
WALL
10
-0.5000
20
-0.0900
30
0
11
18.5000
21
-0.0900
31
0
0
LINE
8
WALL
10
-0.5000
20
7.5900
30
0
11
18.5000
21
7.5900
31
0
0
LINE
8
WALL
10
-0.5000
20
7.4100
30
0
11
18.5000
21
7.4100
31
0
0
LINE
8
WALL
10
-0.5900
20
0.0000
30
0
11
-0.5900
21
7.5000
31
0
0
LINE
8
WALL
10
-0.4100
20
0.0000
30
0
11
-0.4100
21
7.5000
31
0
0
LINE
8
WALL
10
18.4100
20
0.0000
30
0
11
18.4100
21
7.5000
31
0
0
LINE
8
WALL
10
18.5900
20
0.0000
30
0
11
18.5900
21
7.5000
31
0
0
LINE
8
BEAM
10
0.0000
20
0.0000
30
0
11
0.0000
21
7.0000
31
0
0
LINE
8
BEAM
10
0.0000
20
7.0000
30
0
11
18.0000
21
7.0000
31
0
0
LINE
8
BEAM
10
18.0000
20
7.0000
30
0
11
18.0000
21
0.0000
31
0
0
LINE
8
WINDOW
10
8.2000
20
3.9400
30
0
11
9.8000
21
3.9400
31
0
0
LINE
8
WINDOW
10
8.2000
20
4.0200
30
0
11
9.8000
21
4.0200
31
0
0
LINE
8
WINDOW
10
8.2000
20
4.1000
30
0
11
9.8000
21
4.1000
31
0
0
LINE
8
WINDOW
10
8.2000
20
4.1800
30
0
11
9.8000
21
4.1800
31
0
0
LINE
8
WINDOW
10
8.2000
20
3.5100
30
0
11
9.8000
21
3.5100
31
0
0
LINE
8
WINDOW
10
9.8000
20
3.5100
30
0
11
9.8000
21
4.6100
31
0
0
LINE
8
WINDOW
10
9.8000
20
4.6100
30
0
11
8.2000
21
4.6100
31
0
0
LINE
8
WINDOW
10
8.2000
20
4.6100
30
0
11
8.2000
21
3.5100
31
0
0
LINE
8
DIM
10
0.0000
20
-1.2000
30
0
11
18.0000
21
-1.2000
31
0
0
TEXT
8
DIM
10
9.0000
20
-1.7000
30
0
40
0.35
1
18000
72
1
11
9.0000
21
-1.7000
31
0
0
LINE
8
DIM
10
-1.2000
20
0.0000
30
0
11
-1.2000
21
7.0000
31
0
0
TEXT
8
DIM
10
-1.8000
20
3.5000
30
0
40
0.35
1
7000
72
1
11
-1.8000
21
3.5000
31
0
0
LINE
8
GRID
10
0.0000
20
-2.4000
30
0
11
0.0000
21
9.2000
31
0
0
TEXT
8
GRID
10
0.0000
20
-2.8000
30
0
40
0.45
1
1
72
1
11
0.0000
21
-2.8000
31
0
0
LINE
8
GRID
10
18.0000
20
-2.4000
30
0
11
18.0000
21
9.2000
31
0
0
TEXT
8
GRID
10
18.0000
20
-2.8000
30
0
40
0.45
1
2
72
1
11
18.0000
21
-2.8000
31
0
0
LINE
8
GRID
10
-2.4000
20
0.0000
30
0
11
20.2000
21
0.0000
31
0
0
TEXT
8
GRID
10
-2.8000
20
0.0000
30
0
40
0.45
1
A
72
2
11
-2.8000
21
0.0000
31
0
0
LINE
8
GRID
10
-2.4000
20
7.0000
30
0
11
20.2000
21
7.0000
31
0
0
TEXT
8
GRID
10
-2.8000
20
7.0000
30
0
40
0.45
1
B
72
2
11
-2.8000
21
7.0000
31
0
0
LINE
8
FURN
10
4.0000
20
4.5500
30
0
11
14.0000
21
4.5500
31
0
0
TEXT
8
ROOM
10
9.0000
20
4.9000
30
0
40
0.45
1
CRANE / EQUIPMENT ZONE
72
1
11
9.0000
21
4.9000
31
0
0
LINE
8
FURN
10
2.0000
20
0.2000
30
0
11
5.5000
21
0.2000
31
0
0
LINE
8
FURN
10
5.5000
20
0.2000
30
0
11
5.5000
21
1.7000
31
0
0
LINE
8
FURN
10
5.5000
20
1.7000
30
0
11
2.0000
21
1.7000
31
0
0
LINE
8
FURN
10
2.0000
20
1.7000
30
0
11
2.0000
21
0.2000
31
0
0
LINE
8
FURN
10
12.5000
20
0.2000
30
0
11
16.0000
21
0.2000
31
0
0
LINE
8
FURN
10
16.0000
20
0.2000
30
0
11
16.0000
21
1.7000
31
0
0
LINE
8
FURN
10
16.0000
20
1.7000
30
0
11
12.5000
21
1.7000
31
0
0
LINE
8
FURN
10
12.5000
20
1.7000
30
0
11
12.5000
21
0.2000
31
0
0
TEXT
8
DIM
10
9.0000
20
9.8000
30
0
40
0.50
1
INDUSTRIAL BUILDING ELEVATION  1:100
72
1
11
9.0000
21
9.8000
31
0
0
ENDSEC
0
EOF