0
SECTION
2
HEADER
9
$ACADVER
1
AC1009
9
$EXTMIN
10
-60
20
-60
30
0
9
$EXTMAX
10
60
20
60
30
0
0
ENDSEC
0
SECTION
2
TABLES
0
TABLE
2
LTYPE
70
1
0
LTYPE
2
CONTINUOUS
70
0
3
Solid
72
65
73
0
40
0
0
ENDTAB
0
TABLE
2
LAYER
70
11
0
LAYER
2
0
70
0
62
7
6
CONTINUOUS
0
LAYER
2
COLUMN
70
0
62
1
6
CONTINUOUS
0
LAYER
2
BEAM
70
0
62
3
6
CONTINUOUS
0
LAYER
2
WALL
70
0
62
7
6
CONTINUOUS
0
LAYER
2
DOOR
70
0
62
3
6
CONTINUOUS
0
LAYER
2
WINDOW
70
0
62
4
6
CONTINUOUS
0
LAYER
2
FURN
70
0
62
8
6
CONTINUOUS
0
LAYER
2
STAIR
70
0
62
6
6
CONTINUOUS
0
LAYER
2
GRID
70
0
62
5
6
CONTINUOUS
0
LAYER
2
DIM
70
0
62
5
6
CONTINUOUS
0
LAYER
2
ROOM
70
0
62
4
6
CONTINUOUS
0
ENDTAB
0
TABLE
2
STYLE
70
1
0
STYLE
2
STANDARD
70
0
40
0
41
1
50
0
71
0
42
0.2
3
txt
4

0
ENDTAB
0
TABLE
2
VIEW
70
0
0
ENDTAB
0
TABLE
2
VPORT
70
1
0
VPORT
2
*ACTIVE
70
0
10
0
20
0
11
1
21
1
12
0
22
0
13
0
23
0
14
10
24
10
15
10
25
10
16
0
26
0
36
1
17
0
27
0
37
0
40
50
41
1
42
50
43
0
44
0
50
0
51
0
71
0
72
100
73
1
74
3
75
0
76
0
0
ENDTAB
0
ENDSEC
0
SECTION
2
ENTITIES
0
LINE
8
WALL
10
-0.5000
20
-0.3800
30
0
11
11.9000
21
-0.3800
31
0
0
LINE
8
WALL
10
-0.5000
20
-0.6200
30
0
11
11.9000
21
-0.6200
31
0
0
LINE
8
WALL
10
-0.5000
20
3.7200
30
0
11
11.9000
21
3.7200
31
0
0
LINE
8
WALL
10
-0.5000
20
3.4800
30
0
11
11.9000
21
3.4800
31
0
0
LINE
8
WALL
10
-0.5000
20
7.8200
30
0
11
11.9000
21
7.8200
31
0
0
LINE
8
WALL
10
-0.5000
20
7.5800
30
0
11
11.9000
21
7.5800
31
0
0
LINE
8
WALL
10
-0.6200
20
-0.5000
30
0
11
-0.6200
21
7.7000
31
0
0
LINE
8
WALL
10
-0.3800
20
-0.5000
30
0
11
-0.3800
21
7.7000
31
0
0
LINE
8
WALL
10
11.7800
20
-0.5000
30
0
11
11.7800
21
7.7000
31
0
0
LINE
8
WALL
10
12.0200
20
-0.5000
30
0
11
12.0200
21
7.7000
31
0
0
LINE
8
WALL
10
5.3400
20
3.6000
30
0
11
5.3400
21
7.7000
31
0
0
LINE
8
WALL
10
5.4600
20
3.6000
30
0
11
5.4600
21
7.7000
31
0
0
LINE
8
DOOR
10
2.0000
20
3.6000
30
0
11
2.0000
21
4.6000
31
0
0
ARC
8
DOOR
10
2.0000
20
3.6000
30
0
40
1.0000
50
0.00
51
90.00
0
LINE
8
DOOR
10
4.0000
20
3.6000
30
0
11
4.0000
21
4.6000
31
0
0
ARC
8
DOOR
10
4.0000
20
3.6000
30
0
40
1.0000
50
0.00
51
90.00
0
LINE
8
DOOR
10
7.0000
20
3.6000
30
0
11
7.0000
21
4.6000
31
0
0
ARC
8
DOOR
10
7.0000
20
3.6000
30
0
40
1.0000
50
0.00
51
90.00
0
LINE
8
DOOR
10
9.5000
20
3.6000
30
0
11
9.5000
21
4.6000
31
0
0
ARC
8
DOOR
10
9.5000
20
3.6000
30
0
40
1.0000
50
0.00
51
90.00
0
LINE
8
WINDOW
10
1.0000
20
7.5800
30
0
11
2.5000
21
7.5800
31
0
0
LINE
8
WINDOW
10
1.0000
20
7.6600
30
0
11
2.5000
21
7.6600
31
0
0
LINE
8
WINDOW
10
1.0000
20
7.7400
30
0
11
2.5000
21
7.7400
31
0
0
LINE
8
WINDOW
10
1.0000
20
7.8200
30
0
11
2.5000
21
7.8200
31
0
0
LINE
8
WINDOW
10
3.5000
20
7.5800
30
0
11
5.0000
21
7.5800
31
0
0
LINE
8
WINDOW
10
3.5000
20
7.6600
30
0
11
5.0000
21
7.6600
31
0
0
LINE
8
WINDOW
10
3.5000
20
7.7400
30
0
11
5.0000
21
7.7400
31
0
0
LINE
8
WINDOW
10
3.5000
20
7.8200
30
0
11
5.0000
21
7.8200
31
0
0
LINE
8
WINDOW
10
7.0000
20
7.5800
30
0
11
8.5000
21
7.5800
31
0
0
LINE
8
WINDOW
10
7.0000
20
7.6600
30
0
11
8.5000
21
7.6600
31
0
0
LINE
8
WINDOW
10
7.0000
20
7.7400
30
0
11
8.5000
21
7.7400
31
0
0
LINE
8
WINDOW
10
7.0000
20
7.8200
30
0
11
8.5000
21
7.8200
31
0
0
LINE
8
WINDOW
10
9.0000
20
7.5800
30
0
11
10.5000
21
7.5800
31
0
0
LINE
8
WINDOW
10
9.0000
20
7.6600
30
0
11
10.5000
21
7.6600
31
0
0
LINE
8
WINDOW
10
9.0000
20
7.7400
30
0
11
10.5000
21
7.7400
31
0
0
LINE
8
WINDOW
10
9.0000
20
7.8200
30
0
11
10.5000
21
7.8200
31
0
0
LINE
8
WINDOW
10
1.0000
20
-0.6200
30
0
11
2.5000
21
-0.6200
31
0
0
LINE
8
WINDOW
10
1.0000
20
-0.5400
30
0
11
2.5000
21
-0.5400
31
0
0
LINE
8
WINDOW
10
1.0000
20
-0.4600
30
0
11
2.5000
21
-0.4600
31
0
0
LINE
8
WINDOW
10
1.0000
20
-0.3800
30
0
11
2.5000
21
-0.3800
31
0
0
LINE
8
WINDOW
10
4.0000
20
-0.6200
30
0
11
5.0000
21
-0.6200
31
0
0
LINE
8
WINDOW
10
4.0000
20
-0.5400
30
0
11
5.0000
21
-0.5400
31
0
0
LINE
8
WINDOW
10
4.0000
20
-0.4600
30
0
11
5.0000
21
-0.4600
31
0
0
LINE
8
WINDOW
10
4.0000
20
-0.3800
30
0
11
5.0000
21
-0.3800
31
0
0
LINE
8
WINDOW
10
7.0000
20
-0.6200
30
0
11
8.5000
21
-0.6200
31
0
0
LINE
8
WINDOW
10
7.0000
20
-0.5400
30
0
11
8.5000
21
-0.5400
31
0
0
LINE
8
WINDOW
10
7.0000
20
-0.4600
30
0
11
8.5000
21
-0.4600
31
0
0
LINE
8
WINDOW
10
7.0000
20
-0.3800
30
0
11
8.5000
21
-0.3800
31
0
0
LINE
8
WINDOW
10
9.5000
20
-0.6200
30
0
11
10.5000
21
-0.6200
31
0
0
LINE
8
WINDOW
10
9.5000
20
-0.5400
30
0
11
10.5000
21
-0.5400
31
0
0
LINE
8
WINDOW
10
9.5000
20
-0.4600
30
0
11
10.5000
21
-0.4600
31
0
0
LINE
8
WINDOW
10
9.5000
20
-0.3800
30
0
11
10.5000
21
-0.3800
31
0
0
LINE
8
COLUMN
10
-0.2000
20
-0.2000
30
0
11
0.2000
21
-0.2000
31
0
0
LINE
8
COLUMN
10
0.2000
20
-0.2000
30
0
11
0.2000
21
0.2000
31
0
0
LINE
8
COLUMN
10
0.2000
20
0.2000
30
0
11
-0.2000
21
0.2000
31
0
0
LINE
8
COLUMN
10
-0.2000
20
0.2000
30
0
11
-0.2000
21
-0.2000
31
0
0
LINE
8
COLUMN
10
-0.2000
20
-0.2000
30
0
11
0.2000
21
0.2000
31
0
0
LINE
8
COLUMN
10
0.2000
20
-0.2000
30
0
11
-0.2000
21
0.2000
31
0
0
LINE
8
COLUMN
10
5.2000
20
-0.2000
30
0
11
5.6000
21
-0.2000
31
0
0
LINE
8
COLUMN
10
5.6000
20
-0.2000
30
0
11
5.6000
21
0.2000
31
0
0
LINE
8
COLUMN
10
5.6000
20
0.2000
30
0
11
5.2000
21
0.2000
31
0
0
LINE
8
COLUMN
10
5.2000
20
0.2000
30
0
11
5.2000
21
-0.2000
31
0
0
LINE
8
COLUMN
10
5.2000
20
-0.2000
30
0
11
5.6000
21
0.2000
31
0
0
LINE
8
COLUMN
10
5.6000
20
-0.2000
30
0
11
5.2000
21
0.2000
31
0
0
LINE
8
COLUMN
10
11.2000
20
-0.2000
30
0
11
11.6000
21
-0.2000
31
0
0
LINE
8
COLUMN
10
11.6000
20
-0.2000
30
0
11
11.6000
21
0.2000
31
0
0
LINE
8
COLUMN
10
11.6000
20
0.2000
30
0
11
11.2000
21
0.2000
31
0
0
LINE
8
COLUMN
10
11.2000
20
0.2000
30
0
11
11.2000
21
-0.2000
31
0
0
LINE
8
COLUMN
10
11.2000
20
-0.2000
30
0
11
11.6000
21
0.2000
31
0
0
LINE
8
COLUMN
10
11.6000
20
-0.2000
30
0
11
11.2000
21
0.2000
31
0
0
LINE
8
BEAM
10
0.0000
20
3.6000
30
0
11
5.4000
21
3.6000
31
0
0
LINE
8
BEAM
10
5.4000
20
3.6000
30
0
11
11.4000
21
3.6000
31
0
0
LINE
8
BEAM
10
0.0000
20
7.2000
30
0
11
5.4000
21
7.2000
31
0
0
LINE
8
BEAM
10
5.4000
20
7.2000
30
0
11
11.4000
21
7.2000
31
0
0
LINE
8
STAIR
10
9.5000
20
0.2000
30
0
11
11.0000
21
0.2000
31
0
0
LINE
8
STAIR
10
11.0000
20
0.2000
30
0
11
11.0000
21
3.2000
31
0
0
LINE
8
STAIR
10
11.0000
20
3.2000
30
0
11
9.5000
21
3.2000
31
0
0
LINE
8
STAIR
10
9.5000
20
3.2000
30
0
11
9.5000
21
0.2000
31
0
0
LINE
8
STAIR
10
9.5000
20
0.5750
30
0
11
11.0000
21
0.5750
31
0
0
LINE
8
STAIR
10
9.5000
20
0.9500
30
0
11
11.0000
21
0.9500
31
0
0
LINE
8
STAIR
10
9.5000
20
1.3250
30
0
11
11.0000
21
1.3250
31
0
0
LINE
8
STAIR
10
9.5000
20
1.7000
30
0
11
11.0000
21
1.7000
31
0
0
LINE
8
STAIR
10
9.5000
20
2.0750
30
0
11
11.0000
21
2.0750
31
0
0
LINE
8
STAIR
10
9.5000
20
2.4500
30
0
11
11.0000
21
2.4500
31
0
0
LINE
8
STAIR
10
9.5000
20
2.8250
30
0
11
11.0000
21
2.8250
31
0
0
LINE
8
STAIR
10
10.2500
20
0.5000
30
0
11
10.2500
21
2.9000
31
0
0
LINE
8
STAIR
10
10.2500
20
2.9000
30
0
11
9.9500
21
2.4000
31
0
0
LINE
8
STAIR
10
10.2500
20
2.9000
30
0
11
10.5500
21
2.4000
31
0
0
TEXT
8
STAIR
10
10.5500
20
1.7000
30
0
40
0.30
1
UP
0
TEXT
8
ROOM
10
2.7000
20
5.5000
30
0
40
0.50
1
ROOM 101
72
1
11
2.7000
21
5.5000
31
0
0
TEXT
8
ROOM
10
2.7000
20
4.8000
30
0
40
0.30
1
27.0 m2
72
1
11
2.7000
21
4.8000
31
0
0
LINE
8
FURN
10
1.0000
20
4.0000
30
0
11
3.0000
21
4.0000
31
0
0
LINE
8
FURN
10
3.0000
20
4.0000
30
0
11
3.0000
21
5.0000
31
0
0
LINE
8
FURN
10
3.0000
20
5.0000
30
0
11
1.0000
21
5.0000
31
0
0
LINE
8
FURN
10
1.0000
20
5.0000
30
0
11
1.0000
21
4.0000
31
0
0
CIRCLE
8
FURN
10
2.0000
20
3.7500
30
0
40
0.2000
0
CIRCLE
8
FURN
10
2.0000
20
5.2500
30
0
40
0.2000
0
LINE
8
FURN
10
3.5000
20
5.5000
30
0
11
5.9000
21
5.5000
31
0
0
LINE
8
FURN
10
5.9000
20
5.5000
30
0
11
5.9000
21
6.4000
31
0
0
LINE
8
FURN
10
5.9000
20
6.4000
30
0
11
3.5000
21
6.4000
31
0
0
LINE
8
FURN
10
3.5000
20
6.4000
30
0
11
3.5000
21
5.5000
31
0
0
LINE
8
FURN
10
3.5000
20
5.5000
30
0
11
3.8000
21
5.5000
31
0
0
LINE
8
FURN
10
3.8000
20
5.5000
30
0
11
3.8000
21
6.4000
31
0
0
LINE
8
FURN
10
3.8000
20
6.4000
30
0
11
3.5000
21
6.4000
31
0
0
LINE
8
FURN
10
3.5000
20
6.4000
30
0
11
3.5000
21
5.5000
31
0
0
LINE
8
FURN
10
3.8000
20
5.5000
30
0
11
5.9000
21
5.5000
31
0
0
LINE
8
FURN
10
5.9000
20
5.5000
30
0
11
5.9000
21
5.7500
31
0
0
LINE
8
FURN
10
5.9000
20
5.7500
30
0
11
3.8000
21
5.7500
31
0
0
LINE
8
FURN
10
3.8000
20
5.7500
30
0
11
3.8000
21
5.5000
31
0
0
TEXT
8
ROOM
10
8.5000
20
5.5000
30
0
40
0.50
1
ROOM 102
72
1
11
8.5000
21
5.5000
31
0
0
TEXT
8
ROOM
10
8.5000
20
4.8000
30
0
40
0.30
1
30.0 m2
72
1
11
8.5000
21
4.8000
31
0
0
LINE
8
FURN
10
7.0000
20
4.0000
30
0
11
9.0000
21
4.0000
31
0
0
LINE
8
FURN
10
9.0000
20
4.0000
30
0
11
9.0000
21
5.0000
31
0
0
LINE
8
FURN
10
9.0000
20
5.0000
30
0
11
7.0000
21
5.0000
31
0
0
LINE
8
FURN
10
7.0000
20
5.0000
30
0
11
7.0000
21
4.0000
31
0
0
CIRCLE
8
FURN
10
8.0000
20
3.7500
30
0
40
0.2000
0
CIRCLE
8
FURN
10
8.0000
20
5.2500
30
0
40
0.2000
0
LINE
8
FURN
10
9.5000
20
5.0000
30
0
11
11.1000
21
5.0000
31
0
0
LINE
8
FURN
10
11.1000
20
5.0000
30
0
11
11.1000
21
7.0000
31
0
0
LINE
8
FURN
10
11.1000
20
7.0000
30
0
11
9.5000
21
7.0000
31
0
0
LINE
8
FURN
10
9.5000
20
7.0000
30
0
11
9.5000
21
5.0000
31
0
0
LINE
8
FURN
10
9.6000
20
5.1000
30
0
11
11.0000
21
5.1000
31
0
0
LINE
8
FURN
10
11.0000
20
5.1000
30
0
11
11.0000
21
5.4000
31
0
0
LINE
8
FURN
10
11.0000
20
5.4000
30
0
11
9.6000
21
5.4000
31
0
0
LINE
8
FURN
10
9.6000
20
5.4000
30
0
11
9.6000
21
5.1000
31
0
0
TEXT
8
ROOM
10
2.7000
20
1.5000
30
0
40
0.50
1
ROOM 103
72
1
11
2.7000
21
1.5000
31
0
0
TEXT
8
ROOM
10
2.7000
20
0.8000
30
0
40
0.30
1
27.0 m2
72
1
11
2.7000
21
0.8000
31
0
0
LINE
8
FURN
10
1.0000
20
0.5000
30
0
11
3.0000
21
0.5000
31
0
0
LINE
8
FURN
10
3.0000
20
0.5000
30
0
11
3.0000
21
1.5000
31
0
0
LINE
8
FURN
10
3.0000
20
1.5000
30
0
11
1.0000
21
1.5000
31
0
0
LINE
8
FURN
10
1.0000
20
1.5000
30
0
11
1.0000
21
0.5000
31
0
0
CIRCLE
8
FURN
10
2.0000
20
0.2500
30
0
40
0.2000
0
CIRCLE
8
FURN
10
2.0000
20
1.7500
30
0
40
0.2000
0
LINE
8
FURN
10
4.5000
20
0.3000
30
0
11
5.4000
21
0.3000
31
0
0
LINE
8
FURN
10
5.4000
20
0.3000
30
0
11
5.4000
21
1.5000
31
0
0
LINE
8
FURN
10
5.4000
20
1.5000
30
0
11
4.5000
21
1.5000
31
0
0
LINE
8
FURN
10
4.5000
20
1.5000
30
0
11
4.5000
21
0.3000
31
0
0
CIRCLE
8
FURN
10
4.9500
20
0.7000
30
0
40
0.3500
0
LINE
8
FURN
10
4.5000
20
1.8000
30
0
11
6.2000
21
1.8000
31
0
0
LINE
8
FURN
10
6.2000
20
1.8000
30
0
11
6.2000
21
2.6000
31
0
0
LINE
8
FURN
10
6.2000
20
2.6000
30
0
11
4.5000
21
2.6000
31
0
0
LINE
8
FURN
10
4.5000
20
2.6000
30
0
11
4.5000
21
1.8000
31
0
0
LINE
8
FURN
10
4.5500
20
1.8500
30
0
11
6.1500
21
1.8500
31
0
0
LINE
8
FURN
10
6.1500
20
1.8500
30
0
11
6.1500
21
2.5500
31
0
0
LINE
8
FURN
10
6.1500
20
2.5500
30
0
11
4.5500
21
2.5500
31
0
0
LINE
8
FURN
10
4.5500
20
2.5500
30
0
11
4.5500
21
1.8500
31
0
0
TEXT
8
ROOM
10
8.0000
20
1.5000
30
0
40
0.50
1
CORRIDOR
72
1
11
8.0000
21
1.5000
31
0
0
LINE
8
GRID
10
0.0000
20
-2.5000
30
0
11
0.0000
21
10.2000
31
0
0
TEXT
8
GRID
10
0.0000
20
-3.0000
30
0
40
0.50
1
1
72
1
11
0.0000
21
-3.0000
31
0
0
LINE
8
GRID
10
5.4000
20
-2.5000
30
0
11
5.4000
21
10.2000
31
0
0
TEXT
8
GRID
10
5.4000
20
-3.0000
30
0
40
0.50
1
2
72
1
11
5.4000
21
-3.0000
31
0
0
LINE
8
GRID
10
11.4000
20
-2.5000
30
0
11
11.4000
21
10.2000
31
0
0
TEXT
8
GRID
10
11.4000
20
-3.0000
30
0
40
0.50
1
3
72
1
11
11.4000
21
-3.0000
31
0
0
LINE
8
GRID
10
-2.5000
20
0.0000
30
0
11
14.4000
21
0.0000
31
0
0
TEXT
8
GRID
10
-3.0000
20
0.0000
30
0
40
0.50
1
A
72
2
11
-3.0000
21
0.0000
31
0
0
LINE
8
GRID
10
-2.5000
20
3.6000
30
0
11
14.4000
21
3.6000
31
0
0
TEXT
8
GRID
10
-3.0000
20
3.6000
30
0
40
0.50
1
B
72
2
11
-3.0000
21
3.6000
31
0
0
LINE
8
GRID
10
-2.5000
20
7.2000
30
0
11
14.4000
21
7.2000
31
0
0
TEXT
8
GRID
10
-3.0000
20
7.2000
30
0
40
0.50
1
C
72
2
11
-3.0000
21
7.2000
31
0
0
LINE
8
DIM
10
0.0000
20
-1.8000
30
0
11
5.4000
21
-1.8000
31
0
0
LINE
8
DIM
10
5.4000
20
-1.8000
30
0
11
11.4000
21
-1.8000
31
0
0
TEXT
8
DIM
10
2.7000
20
-2.3000
30
0
40
0.35
1
5400
72
1
11
2.7000
21
-2.3000
31
0
0
TEXT
8
DIM
10
8.4000
20
-2.3000
30
0
40
0.35
1
6000
72
1
11
8.4000
21
-2.3000
31
0
0
TEXT
8
DIM
10
5.7000
20
10.7000
30
0
40
0.50
1
1F FLOOR PLAN  1:100
72
1
11
5.7000
21
10.7000
31
0
0
ENDSEC
0
EOF