0
SECTION
2
HEADER
9
$ACADVER
1
AC1009
9
$EXTMIN
10
-60
20
-60
30
0
9
$EXTMAX
10
60
20
60
30
0
0
ENDSEC
0
SECTION
2
TABLES
0
TABLE
2
LTYPE
70
1
0
LTYPE
2
CONTINUOUS
70
0
3
Solid
72
65
73
0
40
0
0
ENDTAB
0
TABLE
2
LAYER
70
11
0
LAYER
2
0
70
0
62
7
6
CONTINUOUS
0
LAYER
2
COLUMN
70
0
62
1
6
CONTINUOUS
0
LAYER
2
BEAM
70
0
62
3
6
CONTINUOUS
0
LAYER
2
WALL
70
0
62
7
6
CONTINUOUS
0
LAYER
2
DOOR
70
0
62
3
6
CONTINUOUS
0
LAYER
2
WINDOW
70
0
62
4
6
CONTINUOUS
0
LAYER
2
FURN
70
0
62
8
6
CONTINUOUS
0
LAYER
2
STAIR
70
0
62
6
6
CONTINUOUS
0
LAYER
2
GRID
70
0
62
5
6
CONTINUOUS
0
LAYER
2
DIM
70
0
62
5
6
CONTINUOUS
0
LAYER
2
ROOM
70
0
62
4
6
CONTINUOUS
0
ENDTAB
0
TABLE
2
STYLE
70
1
0
STYLE
2
STANDARD
70
0
40
0
41
1
50
0
71
0
42
0.2
3
txt
4

0
ENDTAB
0
TABLE
2
VIEW
70
0
0
ENDTAB
0
TABLE
2
VPORT
70
1
0
VPORT
2
*ACTIVE
70
0
10
0
20
0
11
1
21
1
12
0
22
0
13
0
23
0
14
10
24
10
15
10
25
10
16
0
26
0
36
1
17
0
27
0
37
0
40
50
41
1
42
50
43
0
44
0
50
0
51
0
71
0
72
100
73
1
74
3
75
0
76
0
0
ENDTAB
0
ENDSEC
0
SECTION
2
ENTITIES
0
LINE
8
WALL
10
-0.5000
20
-0.3800
30
0
11
6.5000
21
-0.3800
31
0
0
LINE
8
WALL
10
-0.5000
20
-0.6200
30
0
11
6.5000
21
-0.6200
31
0
0
LINE
8
WALL
10
-0.5000
20
5.1200
30
0
11
6.5000
21
5.1200
31
0
0
LINE
8
WALL
10
-0.5000
20
4.8800
30
0
11
6.5000
21
4.8800
31
0
0
LINE
8
WALL
10
-0.6200
20
-0.5000
30
0
11
-0.6200
21
5.0000
31
0
0
LINE
8
WALL
10
-0.3800
20
-0.5000
30
0
11
-0.3800
21
5.0000
31
0
0
LINE
8
WALL
10
6.3800
20
-0.5000
30
0
11
6.3800
21
5.0000
31
0
0
LINE
8
WALL
10
6.6200
20
-0.5000
30
0
11
6.6200
21
5.0000
31
0
0
LINE
8
WINDOW
10
1.0000
20
4.8800
30
0
11
2.5000
21
4.8800
31
0
0
LINE
8
WINDOW
10
1.0000
20
4.9600
30
0
11
2.5000
21
4.9600
31
0
0
LINE
8
WINDOW
10
1.0000
20
5.0400
30
0
11
2.5000
21
5.0400
31
0
0
LINE
8
WINDOW
10
1.0000
20
5.1200
30
0
11
2.5000
21
5.1200
31
0
0
LINE
8
WINDOW
10
3.5000
20
4.8800
30
0
11
5.0000
21
4.8800
31
0
0
LINE
8
WINDOW
10
3.5000
20
4.9600
30
0
11
5.0000
21
4.9600
31
0
0
LINE
8
WINDOW
10
3.5000
20
5.0400
30
0
11
5.0000
21
5.0400
31
0
0
LINE
8
WINDOW
10
3.5000
20
5.1200
30
0
11
5.0000
21
5.1200
31
0
0
LINE
8
DOOR
10
2.5000
20
-0.5000
30
0
11
2.5000
21
0.7000
31
0
0
ARC
8
DOOR
10
2.5000
20
-0.5000
30
0
40
1.2000
50
0.00
51
90.00
0
LINE
8
COLUMN
10
-0.1500
20
-0.1500
30
0
11
0.1500
21
-0.1500
31
0
0
LINE
8
COLUMN
10
0.1500
20
-0.1500
30
0
11
0.1500
21
0.1500
31
0
0
LINE
8
COLUMN
10
0.1500
20
0.1500
30
0
11
-0.1500
21
0.1500
31
0
0
LINE
8
COLUMN
10
-0.1500
20
0.1500
30
0
11
-0.1500
21
-0.1500
31
0
0
LINE
8
COLUMN
10
-0.1500
20
-0.1500
30
0
11
0.1500
21
0.1500
31
0
0
LINE
8
COLUMN
10
0.1500
20
-0.1500
30
0
11
-0.1500
21
0.1500
31
0
0
LINE
8
COLUMN
10
5.8500
20
-0.1500
30
0
11
6.1500
21
-0.1500
31
0
0
LINE
8
COLUMN
10
6.1500
20
-0.1500
30
0
11
6.1500
21
0.1500
31
0
0
LINE
8
COLUMN
10
6.1500
20
0.1500
30
0
11
5.8500
21
0.1500
31
0
0
LINE
8
COLUMN
10
5.8500
20
0.1500
30
0
11
5.8500
21
-0.1500
31
0
0
LINE
8
COLUMN
10
5.8500
20
-0.1500
30
0
11
6.1500
21
0.1500
31
0
0
LINE
8
COLUMN
10
6.1500
20
-0.1500
30
0
11
5.8500
21
0.1500
31
0
0
LINE
8
BEAM
10
0.0000
20
4.5000
30
0
11
6.0000
21
4.5000
31
0
0
TEXT
8
ROOM
10
3.0000
20
1.9500
30
0
40
0.60
1
OFFICE
72
1
11
3.0000
21
1.9500
31
0
0
TEXT
8
ROOM
10
3.0000
20
1.2500
30
0
40
0.30
1
36.0 m2
72
1
11
3.0000
21
1.2500
31
0
0
LINE
8
FURN
10
0.8000
20
0.8000
30
0
11
2.8000
21
0.8000
31
0
0
LINE
8
FURN
10
2.8000
20
0.8000
30
0
11
2.8000
21
1.8000
31
0
0
LINE
8
FURN
10
2.8000
20
1.8000
30
0
11
0.8000
21
1.8000
31
0
0
LINE
8
FURN
10
0.8000
20
1.8000
30
0
11
0.8000
21
0.8000
31
0
0
CIRCLE
8
FURN
10
1.8000
20
0.5500
30
0
40
0.2000
0
CIRCLE
8
FURN
10
1.8000
20
2.0500
30
0
40
0.2000
0
LINE
8
FURN
10
3.5000
20
0.8000
30
0
11
5.5000
21
0.8000
31
0
0
LINE
8
FURN
10
5.5000
20
0.8000
30
0
11
5.5000
21
1.8000
31
0
0
LINE
8
FURN
10
5.5000
20
1.8000
30
0
11
3.5000
21
1.8000
31
0
0
LINE
8
FURN
10
3.5000
20
1.8000
30
0
11
3.5000
21
0.8000
31
0
0
CIRCLE
8
FURN
10
4.5000
20
0.5500
30
0
40
0.2000
0
CIRCLE
8
FURN
10
4.5000
20
2.0500
30
0
40
0.2000
0
LINE
8
FURN
10
1.5000
20
3.0000
30
0
11
3.9000
21
3.0000
31
0
0
LINE
8
FURN
10
3.9000
20
3.0000
30
0
11
3.9000
21
3.9000
31
0
0
LINE
8
FURN
10
3.9000
20
3.9000
30
0
11
1.5000
21
3.9000
31
0
0
LINE
8
FURN
10
1.5000
20
3.9000
30
0
11
1.5000
21
3.0000
31
0
0
LINE
8
FURN
10
1.5000
20
3.0000
30
0
11
1.8000
21
3.0000
31
0
0
LINE
8
FURN
10
1.8000
20
3.0000
30
0
11
1.8000
21
3.9000
31
0
0
LINE
8
FURN
10
1.8000
20
3.9000
30
0
11
1.5000
21
3.9000
31
0
0
LINE
8
FURN
10
1.5000
20
3.9000
30
0
11
1.5000
21
3.0000
31
0
0
LINE
8
FURN
10
1.8000
20
3.0000
30
0
11
3.9000
21
3.0000
31
0
0
LINE
8
FURN
10
3.9000
20
3.0000
30
0
11
3.9000
21
3.2500
31
0
0
LINE
8
FURN
10
3.9000
20
3.2500
30
0
11
1.8000
21
3.2500
31
0
0
LINE
8
FURN
10
1.8000
20
3.2500
30
0
11
1.8000
21
3.0000
31
0
0
LINE
8
FURN
10
4.2000
20
3.2000
30
0
11
5.4000
21
3.2000
31
0
0
LINE
8
FURN
10
5.4000
20
3.2000
30
0
11
5.4000
21
4.2000
31
0
0
LINE
8
FURN
10
5.4000
20
4.2000
30
0
11
4.2000
21
4.2000
31
0
0
LINE
8
FURN
10
4.2000
20
4.2000
30
0
11
4.2000
21
3.2000
31
0
0
LINE
8
GRID
10
-2.0000
20
0.0000
30
0
11
9.0000
21
0.0000
31
0
0
LINE
8
GRID
10
-2.0000
20
4.5000
30
0
11
9.0000
21
4.5000
31
0
0
LINE
8
GRID
10
0.0000
20
-2.0000
30
0
11
0.0000
21
7.5000
31
0
0
LINE
8
GRID
10
6.0000
20
-2.0000
30
0
11
6.0000
21
7.5000
31
0
0
TEXT
8
GRID
10
-2.5000
20
0.0000
30
0
40
0.50
1
A
72
2
11
-2.5000
21
0.0000
31
0
0
TEXT
8
GRID
10
-2.5000
20
4.5000
30
0
40
0.50
1
B
72
2
11
-2.5000
21
4.5000
31
0
0
TEXT
8
GRID
10
0.0000
20
-2.5000
30
0
40
0.50
1
1
72
1
11
0.0000
21
-2.5000
31
0
0
TEXT
8
GRID
10
6.0000
20
-2.5000
30
0
40
0.50
1
2
72
1
11
6.0000
21
-2.5000
31
0
0
LINE
8
DIM
10
0.0000
20
-1.5000
30
0
11
6.0000
21
-1.5000
31
0
0
LINE
8
DIM
10
0.0000
20
-1.3000
30
0
11
0.0000
21
-1.7000
31
0
0
LINE
8
DIM
10
6.0000
20
-1.3000
30
0
11
6.0000
21
-1.7000
31
0
0
TEXT
8
DIM
10
3.0000
20
-1.9000
30
0
40
0.40
1
6000
72
1
11
3.0000
21
-1.9000
31
0
0
LINE
8
DIM
10
-1.5000
20
0.0000
30
0
11
-1.5000
21
4.5000
31
0
0
LINE
8
DIM
10
-1.3000
20
0.0000
30
0
11
-1.7000
21
0.0000
31
0
0
LINE
8
DIM
10
-1.3000
20
4.5000
30
0
11
-1.7000
21
4.5000
31
0
0
TEXT
8
DIM
10
-2.0000
20
2.2500
30
0
40
0.40
1
4500
72
1
11
-2.0000
21
2.2500
31
0
0
TEXT
8
DIM
10
3.0000
20
7.5000
30
0
40
0.50
1
1F FLOOR PLAN  1:100
72
1
11
3.0000
21
7.5000
31
0
0
ENDSEC
0
EOF