0
SECTION
2
HEADER
9
$ACADVER
1
AC1009
9
$EXTMIN
10
-60
20
-60
30
0
9
$EXTMAX
10
60
20
60
30
0
0
ENDSEC
0
SECTION
2
TABLES
0
TABLE
2
LTYPE
70
1
0
LTYPE
2
CONTINUOUS
70
0
3
Solid
72
65
73
0
40
0
0
ENDTAB
0
TABLE
2
LAYER
70
11
0
LAYER
2
0
70
0
62
7
6
CONTINUOUS
0
LAYER
2
COLUMN
70
0
62
1
6
CONTINUOUS
0
LAYER
2
BEAM
70
0
62
3
6
CONTINUOUS
0
LAYER
2
WALL
70
0
62
7
6
CONTINUOUS
0
LAYER
2
DOOR
70
0
62
3
6
CONTINUOUS
0
LAYER
2
WINDOW
70
0
62
4
6
CONTINUOUS
0
LAYER
2
FURN
70
0
62
8
6
CONTINUOUS
0
LAYER
2
STAIR
70
0
62
6
6
CONTINUOUS
0
LAYER
2
GRID
70
0
62
5
6
CONTINUOUS
0
LAYER
2
DIM
70
0
62
5
6
CONTINUOUS
0
LAYER
2
ROOM
70
0
62
4
6
CONTINUOUS
0
ENDTAB
0
TABLE
2
STYLE
70
1
0
STYLE
2
STANDARD
70
0
40
0
41
1
50
0
71
0
42
0.2
3
txt
4

0
ENDTAB
0
TABLE
2
VIEW
70
0
0
ENDTAB
0
TABLE
2
VPORT
70
1
0
VPORT
2
*ACTIVE
70
0
10
0
20
0
11
1
21
1
12
0
22
0
13
0
23
0
14
10
24
10
15
10
25
10
16
0
26
0
36
1
17
0
27
0
37
0
40
50
41
1
42
50
43
0
44
0
50
0
51
0
71
0
72
100
73
1
74
3
75
0
76
0
0
ENDTAB
0
ENDSEC
0
SECTION
2
ENTITIES
0
LINE
8
WALL
10
-0.5000
20
0.0900
30
0
11
6.5000
21
0.0900
31
0
0
LINE
8
WALL
10
-0.5000
20
-0.0900
30
0
11
6.5000
21
-0.0900
31
0
0
LINE
8
WALL
10
-0.5000
20
5.0900
30
0
11
6.5000
21
5.0900
31
0
0
LINE
8
WALL
10
-0.5000
20
4.9100
30
0
11
6.5000
21
4.9100
31
0
0
LINE
8
WALL
10
-0.5900
20
0.0000
30
0
11
-0.5900
21
5.0000
31
0
0
LINE
8
WALL
10
-0.4100
20
0.0000
30
0
11
-0.4100
21
5.0000
31
0
0
LINE
8
WALL
10
6.4100
20
0.0000
30
0
11
6.4100
21
5.0000
31
0
0
LINE
8
WALL
10
6.5900
20
0.0000
30
0
11
6.5900
21
5.0000
31
0
0
LINE
8
COLUMN
10
0.0000
20
0.0000
30
0
11
0.0000
21
4.5000
31
0
0
LINE
8
COLUMN
10
6.0000
20
0.0000
30
0
11
6.0000
21
4.5000
31
0
0
LINE
8
BEAM
10
0.0000
20
4.5000
30
0
11
6.0000
21
4.5000
31
0
0
LINE
8
WINDOW
10
2.2000
20
2.4900
30
0
11
3.8000
21
2.4900
31
0
0
LINE
8
WINDOW
10
2.2000
20
2.5700
30
0
11
3.8000
21
2.5700
31
0
0
LINE
8
WINDOW
10
2.2000
20
2.6500
30
0
11
3.8000
21
2.6500
31
0
0
LINE
8
WINDOW
10
2.2000
20
2.7300
30
0
11
3.8000
21
2.7300
31
0
0
LINE
8
WINDOW
10
2.2000
20
2.0600
30
0
11
3.8000
21
2.0600
31
0
0
LINE
8
WINDOW
10
3.8000
20
2.0600
30
0
11
3.8000
21
3.1600
31
0
0
LINE
8
WINDOW
10
3.8000
20
3.1600
30
0
11
2.2000
21
3.1600
31
0
0
LINE
8
WINDOW
10
2.2000
20
3.1600
30
0
11
2.2000
21
2.0600
31
0
0
LINE
8
DIM
10
0.0000
20
-1.2000
30
0
11
6.0000
21
-1.2000
31
0
0
TEXT
8
DIM
10
3.0000
20
-1.7000
30
0
40
0.35
1
6000
72
1
11
3.0000
21
-1.7000
31
0
0
LINE
8
DIM
10
-1.2000
20
0.0000
30
0
11
-1.2000
21
4.5000
31
0
0
TEXT
8
DIM
10
-1.8000
20
2.2500
30
0
40
0.35
1
4500
72
1
11
-1.8000
21
2.2500
31
0
0
LINE
8
GRID
10
0.0000
20
-2.4000
30
0
11
0.0000
21
6.7000
31
0
0
TEXT
8
GRID
10
0.0000
20
-2.8000
30
0
40
0.45
1
1
72
1
11
0.0000
21
-2.8000
31
0
0
LINE
8
GRID
10
6.0000
20
-2.4000
30
0
11
6.0000
21
6.7000
31
0
0
TEXT
8
GRID
10
6.0000
20
-2.8000
30
0
40
0.45
1
2
72
1
11
6.0000
21
-2.8000
31
0
0
LINE
8
GRID
10
-2.4000
20
0.0000
30
0
11
8.2000
21
0.0000
31
0
0
TEXT
8
GRID
10
-2.8000
20
0.0000
30
0
40
0.45
1
A
72
2
11
-2.8000
21
0.0000
31
0
0
LINE
8
GRID
10
-2.4000
20
4.5000
30
0
11
8.2000
21
4.5000
31
0
0
TEXT
8
GRID
10
-2.8000
20
4.5000
30
0
40
0.45
1
B
72
2
11
-2.8000
21
4.5000
31
0
0
LINE
8
DOOR
10
1.5000
20
0.0000
30
0
11
1.5000
21
1.0000
31
0
0
ARC
8
DOOR
10
1.5000
20
0.0000
30
0
40
1.0000
50
0.00
51
90.00
0
TEXT
8
ROOM
10
3.0000
20
2.2500
30
0
40
0.45
1
ELEVATION
72
1
11
3.0000
21
2.2500
31
0
0
TEXT
8
DIM
10
3.0000
20
7.3000
30
0
40
0.50
1
ARCHITECTURAL ELEVATION  1:100
72
1
11
3.0000
21
7.3000
31
0
0
ENDSEC
0
EOF