0
SECTION
2
HEADER
9
$ACADVER
1
AC1009
9
$EXTMIN
10
-60
20
-60
30
0
9
$EXTMAX
10
60
20
60
30
0
0
ENDSEC
0
SECTION
2
TABLES
0
TABLE
2
LTYPE
70
1
0
LTYPE
2
CONTINUOUS
70
0
3
Solid
72
65
73
0
40
0
0
ENDTAB
0
TABLE
2
LAYER
70
11
0
LAYER
2
0
70
0
62
7
6
CONTINUOUS
0
LAYER
2
COLUMN
70
0
62
1
6
CONTINUOUS
0
LAYER
2
BEAM
70
0
62
3
6
CONTINUOUS
0
LAYER
2
WALL
70
0
62
7
6
CONTINUOUS
0
LAYER
2
DOOR
70
0
62
3
6
CONTINUOUS
0
LAYER
2
WINDOW
70
0
62
4
6
CONTINUOUS
0
LAYER
2
FURN
70
0
62
8
6
CONTINUOUS
0
LAYER
2
STAIR
70
0
62
6
6
CONTINUOUS
0
LAYER
2
GRID
70
0
62
5
6
CONTINUOUS
0
LAYER
2
DIM
70
0
62
5
6
CONTINUOUS
0
LAYER
2
ROOM
70
0
62
4
6
CONTINUOUS
0
ENDTAB
0
TABLE
2
STYLE
70
1
0
STYLE
2
STANDARD
70
0
40
0
41
1
50
0
71
0
42
0.2
3
txt
4

0
ENDTAB
0
TABLE
2
VIEW
70
0
0
ENDTAB
0
TABLE
2
VPORT
70
1
0
VPORT
2
*ACTIVE
70
0
10
0
20
0
11
1
21
1
12
0
22
0
13
0
23
0
14
10
24
10
15
10
25
10
16
0
26
0
36
1
17
0
27
0
37
0
40
50
41
1
42
50
43
0
44
0
50
0
51
0
71
0
72
100
73
1
74
3
75
0
76
0
0
ENDTAB
0
ENDSEC
0
SECTION
2
ENTITIES
0
LINE
8
WALL
10
-0.6000
20
-0.4500
30
0
11
18.6000
21
-0.4500
31
0
0
LINE
8
WALL
10
-0.6000
20
-0.7500
30
0
11
18.6000
21
-0.7500
31
0
0
LINE
8
WALL
10
-0.6000
20
24.7500
30
0
11
18.6000
21
24.7500
31
0
0
LINE
8
WALL
10
-0.6000
20
24.4500
30
0
11
18.6000
21
24.4500
31
0
0
LINE
8
WALL
10
-0.7500
20
-0.6000
30
0
11
-0.7500
21
24.6000
31
0
0
LINE
8
WALL
10
-0.4500
20
-0.6000
30
0
11
-0.4500
21
24.6000
31
0
0
LINE
8
WALL
10
18.4500
20
-0.6000
30
0
11
18.4500
21
24.6000
31
0
0
LINE
8
WALL
10
18.7500
20
-0.6000
30
0
11
18.7500
21
24.6000
31
0
0
LINE
8
DOOR
10
2.0000
20
-0.6000
30
0
11
2.0000
21
4.4000
31
0
0
ARC
8
DOOR
10
2.0000
20
-0.6000
30
0
40
5.0000
50
0.00
51
90.00
0
LINE
8
DOOR
10
11.0000
20
-0.6000
30
0
11
11.0000
21
4.4000
31
0
0
ARC
8
DOOR
10
11.0000
20
-0.6000
30
0
40
5.0000
50
0.00
51
90.00
0
LINE
8
WINDOW
10
18.7200
20
1.0000
30
0
11
18.7200
21
5.0000
31
0
0
LINE
8
WINDOW
10
18.6400
20
1.0000
30
0
11
18.6400
21
5.0000
31
0
0
LINE
8
WINDOW
10
18.5600
20
1.0000
30
0
11
18.5600
21
5.0000
31
0
0
LINE
8
WINDOW
10
18.4800
20
1.0000
30
0
11
18.4800
21
5.0000
31
0
0
LINE
8
WINDOW
10
-0.4800
20
1.0000
30
0
11
-0.4800
21
5.0000
31
0
0
LINE
8
WINDOW
10
-0.5600
20
1.0000
30
0
11
-0.5600
21
5.0000
31
0
0
LINE
8
WINDOW
10
-0.6400
20
1.0000
30
0
11
-0.6400
21
5.0000
31
0
0
LINE
8
WINDOW
10
-0.7200
20
1.0000
30
0
11
-0.7200
21
5.0000
31
0
0
LINE
8
WINDOW
10
18.7200
20
7.0000
30
0
11
18.7200
21
11.0000
31
0
0
LINE
8
WINDOW
10
18.6400
20
7.0000
30
0
11
18.6400
21
11.0000
31
0
0
LINE
8
WINDOW
10
18.5600
20
7.0000
30
0
11
18.5600
21
11.0000
31
0
0
LINE
8
WINDOW
10
18.4800
20
7.0000
30
0
11
18.4800
21
11.0000
31
0
0
LINE
8
WINDOW
10
-0.4800
20
7.0000
30
0
11
-0.4800
21
11.0000
31
0
0
LINE
8
WINDOW
10
-0.5600
20
7.0000
30
0
11
-0.5600
21
11.0000
31
0
0
LINE
8
WINDOW
10
-0.6400
20
7.0000
30
0
11
-0.6400
21
11.0000
31
0
0
LINE
8
WINDOW
10
-0.7200
20
7.0000
30
0
11
-0.7200
21
11.0000
31
0
0
LINE
8
WINDOW
10
18.7200
20
13.0000
30
0
11
18.7200
21
17.0000
31
0
0
LINE
8
WINDOW
10
18.6400
20
13.0000
30
0
11
18.6400
21
17.0000
31
0
0
LINE
8
WINDOW
10
18.5600
20
13.0000
30
0
11
18.5600
21
17.0000
31
0
0
LINE
8
WINDOW
10
18.4800
20
13.0000
30
0
11
18.4800
21
17.0000
31
0
0
LINE
8
WINDOW
10
-0.4800
20
13.0000
30
0
11
-0.4800
21
17.0000
31
0
0
LINE
8
WINDOW
10
-0.5600
20
13.0000
30
0
11
-0.5600
21
17.0000
31
0
0
LINE
8
WINDOW
10
-0.6400
20
13.0000
30
0
11
-0.6400
21
17.0000
31
0
0
LINE
8
WINDOW
10
-0.7200
20
13.0000
30
0
11
-0.7200
21
17.0000
31
0
0
LINE
8
WINDOW
10
18.7200
20
19.0000
30
0
11
18.7200
21
23.0000
31
0
0
LINE
8
WINDOW
10
18.6400
20
19.0000
30
0
11
18.6400
21
23.0000
31
0
0
LINE
8
WINDOW
10
18.5600
20
19.0000
30
0
11
18.5600
21
23.0000
31
0
0
LINE
8
WINDOW
10
18.4800
20
19.0000
30
0
11
18.4800
21
23.0000
31
0
0
LINE
8
WINDOW
10
-0.4800
20
19.0000
30
0
11
-0.4800
21
23.0000
31
0
0
LINE
8
WINDOW
10
-0.5600
20
19.0000
30
0
11
-0.5600
21
23.0000
31
0
0
LINE
8
WINDOW
10
-0.6400
20
19.0000
30
0
11
-0.6400
21
23.0000
31
0
0
LINE
8
WINDOW
10
-0.7200
20
19.0000
30
0
11
-0.7200
21
23.0000
31
0
0
LINE
8
COLUMN
10
-0.3000
20
-0.3000
30
0
11
0.3000
21
-0.3000
31
0
0
LINE
8
COLUMN
10
0.3000
20
-0.3000
30
0
11
0.3000
21
0.3000
31
0
0
LINE
8
COLUMN
10
0.3000
20
0.3000
30
0
11
-0.3000
21
0.3000
31
0
0
LINE
8
COLUMN
10
-0.3000
20
0.3000
30
0
11
-0.3000
21
-0.3000
31
0
0
LINE
8
COLUMN
10
-0.3000
20
-0.3000
30
0
11
0.3000
21
0.3000
31
0
0
LINE
8
COLUMN
10
0.3000
20
-0.3000
30
0
11
-0.3000
21
0.3000
31
0
0
LINE
8
COLUMN
10
17.7000
20
-0.3000
30
0
11
18.3000
21
-0.3000
31
0
0
LINE
8
COLUMN
10
18.3000
20
-0.3000
30
0
11
18.3000
21
0.3000
31
0
0
LINE
8
COLUMN
10
18.3000
20
0.3000
30
0
11
17.7000
21
0.3000
31
0
0
LINE
8
COLUMN
10
17.7000
20
0.3000
30
0
11
17.7000
21
-0.3000
31
0
0
LINE
8
COLUMN
10
17.7000
20
-0.3000
30
0
11
18.3000
21
0.3000
31
0
0
LINE
8
COLUMN
10
18.3000
20
-0.3000
30
0
11
17.7000
21
0.3000
31
0
0
LINE
8
COLUMN
10
-0.3000
20
5.7000
30
0
11
0.3000
21
5.7000
31
0
0
LINE
8
COLUMN
10
0.3000
20
5.7000
30
0
11
0.3000
21
6.3000
31
0
0
LINE
8
COLUMN
10
0.3000
20
6.3000
30
0
11
-0.3000
21
6.3000
31
0
0
LINE
8
COLUMN
10
-0.3000
20
6.3000
30
0
11
-0.3000
21
5.7000
31
0
0
LINE
8
COLUMN
10
-0.3000
20
5.7000
30
0
11
0.3000
21
6.3000
31
0
0
LINE
8
COLUMN
10
0.3000
20
5.7000
30
0
11
-0.3000
21
6.3000
31
0
0
LINE
8
COLUMN
10
17.7000
20
5.7000
30
0
11
18.3000
21
5.7000
31
0
0
LINE
8
COLUMN
10
18.3000
20
5.7000
30
0
11
18.3000
21
6.3000
31
0
0
LINE
8
COLUMN
10
18.3000
20
6.3000
30
0
11
17.7000
21
6.3000
31
0
0
LINE
8
COLUMN
10
17.7000
20
6.3000
30
0
11
17.7000
21
5.7000
31
0
0
LINE
8
COLUMN
10
17.7000
20
5.7000
30
0
11
18.3000
21
6.3000
31
0
0
LINE
8
COLUMN
10
18.3000
20
5.7000
30
0
11
17.7000
21
6.3000
31
0
0
LINE
8
COLUMN
10
-0.3000
20
11.7000
30
0
11
0.3000
21
11.7000
31
0
0
LINE
8
COLUMN
10
0.3000
20
11.7000
30
0
11
0.3000
21
12.3000
31
0
0
LINE
8
COLUMN
10
0.3000
20
12.3000
30
0
11
-0.3000
21
12.3000
31
0
0
LINE
8
COLUMN
10
-0.3000
20
12.3000
30
0
11
-0.3000
21
11.7000
31
0
0
LINE
8
COLUMN
10
-0.3000
20
11.7000
30
0
11
0.3000
21
12.3000
31
0
0
LINE
8
COLUMN
10
0.3000
20
11.7000
30
0
11
-0.3000
21
12.3000
31
0
0
LINE
8
COLUMN
10
17.7000
20
11.7000
30
0
11
18.3000
21
11.7000
31
0
0
LINE
8
COLUMN
10
18.3000
20
11.7000
30
0
11
18.3000
21
12.3000
31
0
0
LINE
8
COLUMN
10
18.3000
20
12.3000
30
0
11
17.7000
21
12.3000
31
0
0
LINE
8
COLUMN
10
17.7000
20
12.3000
30
0
11
17.7000
21
11.7000
31
0
0
LINE
8
COLUMN
10
17.7000
20
11.7000
30
0
11
18.3000
21
12.3000
31
0
0
LINE
8
COLUMN
10
18.3000
20
11.7000
30
0
11
17.7000
21
12.3000
31
0
0
LINE
8
COLUMN
10
-0.3000
20
17.7000
30
0
11
0.3000
21
17.7000
31
0
0
LINE
8
COLUMN
10
0.3000
20
17.7000
30
0
11
0.3000
21
18.3000
31
0
0
LINE
8
COLUMN
10
0.3000
20
18.3000
30
0
11
-0.3000
21
18.3000
31
0
0
LINE
8
COLUMN
10
-0.3000
20
18.3000
30
0
11
-0.3000
21
17.7000
31
0
0
LINE
8
COLUMN
10
-0.3000
20
17.7000
30
0
11
0.3000
21
18.3000
31
0
0
LINE
8
COLUMN
10
0.3000
20
17.7000
30
0
11
-0.3000
21
18.3000
31
0
0
LINE
8
COLUMN
10
17.7000
20
17.7000
30
0
11
18.3000
21
17.7000
31
0
0
LINE
8
COLUMN
10
18.3000
20
17.7000
30
0
11
18.3000
21
18.3000
31
0
0
LINE
8
COLUMN
10
18.3000
20
18.3000
30
0
11
17.7000
21
18.3000
31
0
0
LINE
8
COLUMN
10
17.7000
20
18.3000
30
0
11
17.7000
21
17.7000
31
0
0
LINE
8
COLUMN
10
17.7000
20
17.7000
30
0
11
18.3000
21
18.3000
31
0
0
LINE
8
COLUMN
10
18.3000
20
17.7000
30
0
11
17.7000
21
18.3000
31
0
0
LINE
8
COLUMN
10
-0.3000
20
23.7000
30
0
11
0.3000
21
23.7000
31
0
0
LINE
8
COLUMN
10
0.3000
20
23.7000
30
0
11
0.3000
21
24.3000
31
0
0
LINE
8
COLUMN
10
0.3000
20
24.3000
30
0
11
-0.3000
21
24.3000
31
0
0
LINE
8
COLUMN
10
-0.3000
20
24.3000
30
0
11
-0.3000
21
23.7000
31
0
0
LINE
8
COLUMN
10
-0.3000
20
23.7000
30
0
11
0.3000
21
24.3000
31
0
0
LINE
8
COLUMN
10
0.3000
20
23.7000
30
0
11
-0.3000
21
24.3000
31
0
0
LINE
8
COLUMN
10
17.7000
20
23.7000
30
0
11
18.3000
21
23.7000
31
0
0
LINE
8
COLUMN
10
18.3000
20
23.7000
30
0
11
18.3000
21
24.3000
31
0
0
LINE
8
COLUMN
10
18.3000
20
24.3000
30
0
11
17.7000
21
24.3000
31
0
0
LINE
8
COLUMN
10
17.7000
20
24.3000
30
0
11
17.7000
21
23.7000
31
0
0
LINE
8
COLUMN
10
17.7000
20
23.7000
30
0
11
18.3000
21
24.3000
31
0
0
LINE
8
COLUMN
10
18.3000
20
23.7000
30
0
11
17.7000
21
24.3000
31
0
0
LINE
8
BEAM
10
0.0000
20
0.0000
30
0
11
18.0000
21
0.0000
31
0
0
LINE
8
BEAM
10
0.0000
20
6.0000
30
0
11
18.0000
21
6.0000
31
0
0
LINE
8
BEAM
10
0.0000
20
12.0000
30
0
11
18.0000
21
12.0000
31
0
0
LINE
8
BEAM
10
0.0000
20
18.0000
30
0
11
18.0000
21
18.0000
31
0
0
LINE
8
BEAM
10
0.0000
20
24.0000
30
0
11
18.0000
21
24.0000
31
0
0
LINE
8
BEAM
10
3.0000
20
0.0000
30
0
11
3.0000
21
24.0000
31
0
0
LINE
8
BEAM
10
9.0000
20
0.0000
30
0
11
9.0000
21
24.0000
31
0
0
LINE
8
BEAM
10
15.0000
20
0.0000
30
0
11
15.0000
21
24.0000
31
0
0
LINE
8
FURN
10
4.0000
20
0.6000
30
0
11
4.0000
21
23.4000
31
0
0
LINE
8
FURN
10
14.0000
20
0.6000
30
0
11
14.0000
21
23.4000
31
0
0
TEXT
8
ROOM
10
9.0000
20
12.0000
30
0
40
0.50
1
10t CRANE
72
1
11
9.0000
21
12.0000
31
0
0
LINE
8
FURN
10
2.0000
20
2.0000
30
0
11
7.0000
21
2.0000
31
0
0
LINE
8
FURN
10
7.0000
20
2.0000
30
0
11
7.0000
21
6.0000
31
0
0
LINE
8
FURN
10
7.0000
20
6.0000
30
0
11
2.0000
21
6.0000
31
0
0
LINE
8
FURN
10
2.0000
20
6.0000
30
0
11
2.0000
21
2.0000
31
0
0
LINE
8
FURN
10
2.0000
20
8.0000
30
0
11
6.0000
21
8.0000
31
0
0
LINE
8
FURN
10
6.0000
20
8.0000
30
0
11
6.0000
21
11.0000
31
0
0
LINE
8
FURN
10
6.0000
20
11.0000
30
0
11
2.0000
21
11.0000
31
0
0
LINE
8
FURN
10
2.0000
20
11.0000
30
0
11
2.0000
21
8.0000
31
0
0
LINE
8
FURN
10
11.0000
20
18.0000
30
0
11
16.0000
21
18.0000
31
0
0
LINE
8
FURN
10
16.0000
20
18.0000
30
0
11
16.0000
21
22.0000
31
0
0
LINE
8
FURN
10
16.0000
20
22.0000
30
0
11
11.0000
21
22.0000
31
0
0
LINE
8
FURN
10
11.0000
20
22.0000
30
0
11
11.0000
21
18.0000
31
0
0
CIRCLE
8
FURN
10
9.0000
20
3.0000
30
0
40
1.2000
0
LINE
8
WALL
10
0.6000
20
20.0600
30
0
11
8.0000
21
20.0600
31
0
0
LINE
8
WALL
10
0.6000
20
19.9400
30
0
11
8.0000
21
19.9400
31
0
0
LINE
8
WALL
10
10.0000
20
20.0600
30
0
11
17.4000
21
20.0600
31
0
0
LINE
8
WALL
10
10.0000
20
19.9400
30
0
11
17.4000
21
19.9400
31
0
0
LINE
8
DOOR
10
9.0000
20
20.0000
30
0
11
9.0000
21
21.2000
31
0
0
ARC
8
DOOR
10
9.0000
20
20.0000
30
0
40
1.2000
50
0.00
51
90.00
0
TEXT
8
ROOM
10
4.5000
20
22.0000
30
0
40
0.50
1
OFFICE
72
1
11
4.5000
21
22.0000
31
0
0
LINE
8
FURN
10
2.0000
20
20.5000
30
0
11
4.0000
21
20.5000
31
0
0
LINE
8
FURN
10
4.0000
20
20.5000
30
0
11
4.0000
21
21.5000
31
0
0
LINE
8
FURN
10
4.0000
20
21.5000
30
0
11
2.0000
21
21.5000
31
0
0
LINE
8
FURN
10
2.0000
20
21.5000
30
0
11
2.0000
21
20.5000
31
0
0
CIRCLE
8
FURN
10
3.0000
20
20.2500
30
0
40
0.2000
0
CIRCLE
8
FURN
10
3.0000
20
21.7500
30
0
40
0.2000
0
LINE
8
FURN
10
5.0000
20
21.0000
30
0
11
7.4000
21
21.0000
31
0
0
LINE
8
FURN
10
7.4000
20
21.0000
30
0
11
7.4000
21
21.9000
31
0
0
LINE
8
FURN
10
7.4000
20
21.9000
30
0
11
5.0000
21
21.9000
31
0
0
LINE
8
FURN
10
5.0000
20
21.9000
30
0
11
5.0000
21
21.0000
31
0
0
LINE
8
FURN
10
5.0000
20
21.0000
30
0
11
5.3000
21
21.0000
31
0
0
LINE
8
FURN
10
5.3000
20
21.0000
30
0
11
5.3000
21
21.9000
31
0
0
LINE
8
FURN
10
5.3000
20
21.9000
30
0
11
5.0000
21
21.9000
31
0
0
LINE
8
FURN
10
5.0000
20
21.9000
30
0
11
5.0000
21
21.0000
31
0
0
LINE
8
FURN
10
5.3000
20
21.0000
30
0
11
7.4000
21
21.0000
31
0
0
LINE
8
FURN
10
7.4000
20
21.0000
30
0
11
7.4000
21
21.2500
31
0
0
LINE
8
FURN
10
7.4000
20
21.2500
30
0
11
5.3000
21
21.2500
31
0
0
LINE
8
FURN
10
5.3000
20
21.2500
30
0
11
5.3000
21
21.0000
31
0
0
LINE
8
GRID
10
0.0000
20
-3.0000
30
0
11
0.0000
21
28.0000
31
0
0
TEXT
8
GRID
10
0.0000
20
-3.5000
30
0
40
0.50
1
A
72
1
11
0.0000
21
-3.5000
31
0
0
LINE
8
GRID
10
18.0000
20
-3.0000
30
0
11
18.0000
21
28.0000
31
0
0
TEXT
8
GRID
10
18.0000
20
-3.5000
30
0
40
0.50
1
B
72
1
11
18.0000
21
-3.5000
31
0
0
LINE
8
GRID
10
-3.0000
20
0.0000
30
0
11
22.0000
21
0.0000
31
0
0
TEXT
8
GRID
10
-3.5000
20
0.0000
30
0
40
0.50
1
1
72
2
11
-3.5000
21
0.0000
31
0
0
LINE
8
GRID
10
-3.0000
20
6.0000
30
0
11
22.0000
21
6.0000
31
0
0
TEXT
8
GRID
10
-3.5000
20
6.0000
30
0
40
0.50
1
2
72
2
11
-3.5000
21
6.0000
31
0
0
LINE
8
GRID
10
-3.0000
20
12.0000
30
0
11
22.0000
21
12.0000
31
0
0
TEXT
8
GRID
10
-3.5000
20
12.0000
30
0
40
0.50
1
3
72
2
11
-3.5000
21
12.0000
31
0
0
LINE
8
GRID
10
-3.0000
20
18.0000
30
0
11
22.0000
21
18.0000
31
0
0
TEXT
8
GRID
10
-3.5000
20
18.0000
30
0
40
0.50
1
4
72
2
11
-3.5000
21
18.0000
31
0
0
LINE
8
GRID
10
-3.0000
20
24.0000
30
0
11
22.0000
21
24.0000
31
0
0
TEXT
8
GRID
10
-3.5000
20
24.0000
30
0
40
0.50
1
5
72
2
11
-3.5000
21
24.0000
31
0
0
LINE
8
DIM
10
0.0000
20
-2.0000
30
0
11
18.0000
21
-2.0000
31
0
0
TEXT
8
DIM
10
9.0000
20
-2.6000
30
0
40
0.40
1
18000
72
1
11
9.0000
21
-2.6000
31
0
0
LINE
8
DIM
10
20.0000
20
0.0000
30
0
11
20.0000
21
6.0000
31
0
0
TEXT
8
DIM
10
21.0000
20
3.0000
30
0
40
0.35
1
6000
72
0
11
21.0000
21
3.0000
31
0
0
LINE
8
DIM
10
20.0000
20
6.0000
30
0
11
20.0000
21
12.0000
31
0
0
TEXT
8
DIM
10
21.0000
20
9.0000
30
0
40
0.35
1
6000
72
0
11
21.0000
21
9.0000
31
0
0
LINE
8
DIM
10
20.0000
20
12.0000
30
0
11
20.0000
21
18.0000
31
0
0
TEXT
8
DIM
10
21.0000
20
15.0000
30
0
40
0.35
1
6000
72
0
11
21.0000
21
15.0000
31
0
0
LINE
8
DIM
10
20.0000
20
18.0000
30
0
11
20.0000
21
24.0000
31
0
0
TEXT
8
DIM
10
21.0000
20
21.0000
30
0
40
0.35
1
6000
72
0
11
21.0000
21
21.0000
31
0
0
TEXT
8
DIM
10
9.0000
20
28.0000
30
0
40
0.50
1
GROUND FLOOR PLAN  1:100
72
1
11
9.0000
21
28.0000
31
0
0
ENDSEC
0
EOF