0
SECTION
2
HEADER
9
$ACADVER
1
AC1009
9
$EXTMIN
10
-50
20
-50
30
0
9
$EXTMAX
10
50
20
50
30
0
0
ENDSEC
0
SECTION
2
TABLES
0
TABLE
2
LTYPE
70
1
0
LTYPE
2
CONTINUOUS
70
0
3
Solid line
72
65
73
0
40
0
0
ENDTAB
0
TABLE
2
LAYER
70
5
0
LAYER
2
0
70
0
62
7
6
CONTINUOUS
0
LAYER
2
STRUCT
70
0
62
7
6
CONTINUOUS
0
LAYER
2
DIM
70
0
62
5
6
CONTINUOUS
0
LAYER
2
GRID
70
0
62
8
6
CONTINUOUS
0
LAYER
2
LOAD
70
0
62
1
6
CONTINUOUS
0
ENDTAB
0
TABLE
2
STYLE
70
1
0
STYLE
2
STANDARD
70
0
40
0
41
1
50
0
71
0
42
0.2
3
txt
4

0
ENDTAB
0
TABLE
2
VIEW
70
0
0
ENDTAB
0
TABLE
2
VPORT
70
1
0
VPORT
2
*ACTIVE
70
0
10
0
20
0
11
1
21
1
12
0
22
0
13
0
23
0
14
10
24
10
15
10
25
10
16
0
26
0
36
1
17
0
27
0
37
0
40
50
41
1
42
50
43
0
44
0
50
0
51
0
71
0
72
100
73
1
74
3
75
0
76
0
0
ENDTAB
0
ENDSEC
0
SECTION
2
ENTITIES
0
LINE
8
STRUCT
10
0.0000
20
0.0000
30
0
11
0.0000
21
3.6000
31
0
0
LINE
8
STRUCT
10
-4.3301
20
2.5000
30
0
11
-4.3301
21
6.1000
31
0
0
LINE
8
STRUCT
10
-8.6603
20
5.0000
30
0
11
-8.6603
21
8.6000
31
0
0
LINE
8
STRUCT
10
5.1962
20
3.0000
30
0
11
5.1962
21
6.6000
31
0
0
LINE
8
STRUCT
10
0.8660
20
5.5000
30
0
11
0.8660
21
9.1000
31
0
0
LINE
8
STRUCT
10
-3.4641
20
8.0000
30
0
11
-3.4641
21
11.6000
31
0
0
LINE
8
STRUCT
10
10.3923
20
6.0000
30
0
11
10.3923
21
9.6000
31
0
0
LINE
8
STRUCT
10
6.0622
20
8.5000
30
0
11
6.0622
21
12.1000
31
0
0
LINE
8
STRUCT
10
1.7321
20
11.0000
30
0
11
1.7321
21
14.6000
31
0
0
LINE
8
STRUCT
10
0.0000
20
3.6000
30
0
11
0.0000
21
7.2000
31
0
0
LINE
8
STRUCT
10
-4.3301
20
6.1000
30
0
11
-4.3301
21
9.7000
31
0
0
LINE
8
STRUCT
10
-8.6603
20
8.6000
30
0
11
-8.6603
21
12.2000
31
0
0
LINE
8
STRUCT
10
5.1962
20
6.6000
30
0
11
5.1962
21
10.2000
31
0
0
LINE
8
STRUCT
10
0.8660
20
9.1000
30
0
11
0.8660
21
12.7000
31
0
0
LINE
8
STRUCT
10
-3.4641
20
11.6000
30
0
11
-3.4641
21
15.2000
31
0
0
LINE
8
STRUCT
10
10.3923
20
9.6000
30
0
11
10.3923
21
13.2000
31
0
0
LINE
8
STRUCT
10
6.0622
20
12.1000
30
0
11
6.0622
21
15.7000
31
0
0
LINE
8
STRUCT
10
1.7321
20
14.6000
30
0
11
1.7321
21
18.2000
31
0
0
LINE
8
STRUCT
10
0.0000
20
3.6000
30
0
11
5.1962
21
6.6000
31
0
0
LINE
8
STRUCT
10
-4.3301
20
6.1000
30
0
11
0.8660
21
9.1000
31
0
0
LINE
8
STRUCT
10
-8.6603
20
8.6000
30
0
11
-3.4641
21
11.6000
31
0
0
LINE
8
STRUCT
10
5.1962
20
6.6000
30
0
11
10.3923
21
9.6000
31
0
0
LINE
8
STRUCT
10
0.8660
20
9.1000
30
0
11
6.0622
21
12.1000
31
0
0
LINE
8
STRUCT
10
-3.4641
20
11.6000
30
0
11
1.7321
21
14.6000
31
0
0
LINE
8
STRUCT
10
0.0000
20
7.2000
30
0
11
5.1962
21
10.2000
31
0
0
LINE
8
STRUCT
10
-4.3301
20
9.7000
30
0
11
0.8660
21
12.7000
31
0
0
LINE
8
STRUCT
10
-8.6603
20
12.2000
30
0
11
-3.4641
21
15.2000
31
0
0
LINE
8
STRUCT
10
5.1962
20
10.2000
30
0
11
10.3923
21
13.2000
31
0
0
LINE
8
STRUCT
10
0.8660
20
12.7000
30
0
11
6.0622
21
15.7000
31
0
0
LINE
8
STRUCT
10
-3.4641
20
15.2000
30
0
11
1.7321
21
18.2000
31
0
0
LINE
8
STRUCT
10
0.0000
20
3.6000
30
0
11
-4.3301
21
6.1000
31
0
0
LINE
8
STRUCT
10
-4.3301
20
6.1000
30
0
11
-8.6603
21
8.6000
31
0
0
LINE
8
STRUCT
10
5.1962
20
6.6000
30
0
11
0.8660
21
9.1000
31
0
0
LINE
8
STRUCT
10
0.8660
20
9.1000
30
0
11
-3.4641
21
11.6000
31
0
0
LINE
8
STRUCT
10
10.3923
20
9.6000
30
0
11
6.0622
21
12.1000
31
0
0
LINE
8
STRUCT
10
6.0622
20
12.1000
30
0
11
1.7321
21
14.6000
31
0
0
LINE
8
STRUCT
10
0.0000
20
7.2000
30
0
11
-4.3301
21
9.7000
31
0
0
LINE
8
STRUCT
10
-4.3301
20
9.7000
30
0
11
-8.6603
21
12.2000
31
0
0
LINE
8
STRUCT
10
5.1962
20
10.2000
30
0
11
0.8660
21
12.7000
31
0
0
LINE
8
STRUCT
10
0.8660
20
12.7000
30
0
11
-3.4641
21
15.2000
31
0
0
LINE
8
STRUCT
10
10.3923
20
13.2000
30
0
11
6.0622
21
15.7000
31
0
0
LINE
8
STRUCT
10
6.0622
20
15.7000
30
0
11
1.7321
21
18.2000
31
0
0
LINE
8
GRID
10
0.0000
20
0.0000
30
0
11
10.3923
21
6.0000
31
0
0
LINE
8
GRID
10
-4.3301
20
2.5000
30
0
11
6.0622
21
8.5000
31
0
0
LINE
8
GRID
10
-8.6603
20
5.0000
30
0
11
1.7321
21
11.0000
31
0
0
LINE
8
GRID
10
0.0000
20
0.0000
30
0
11
-8.6603
21
5.0000
31
0
0
LINE
8
GRID
10
5.1962
20
3.0000
30
0
11
-3.4641
21
8.0000
31
0
0
LINE
8
GRID
10
10.3923
20
6.0000
30
0
11
1.7321
21
11.0000
31
0
0
TEXT
8
DIM
10
5.1962
20
1.5000
30
0
40
0.60
1
X: 12m
0
TEXT
8
DIM
10
-6.3301
20
2.5000
30
0
40
0.60
1
Y: 10m
0
TEXT
8
DIM
10
11.3923
20
9.6000
30
0
40
0.60
1
H: 7.2m
0
TEXT
8
DIM
10
11.6913
20
8.5500
30
0
40
0.40
1
3.6m
0
TEXT
8
DIM
10
11.6913
20
12.1500
30
0
40
0.40
1
3.6m
0
TEXT
8
LOAD
10
0.8660
20
9.9000
30
0
40
0.40
1
10 kN/m
0
TEXT
8
LOAD
10
0.8660
20
9.9000
30
0
40
0.40
1
8 kN/m
0
TEXT
8
TEXT
10
0.8660
20
15.7000
30
0
40
0.80
1
3D Frame | X 12m x Y 10m x H 7.2m | Q345
0
ENDSEC
0
EOF